<svg xmlns="http://www.w3.org/2000/svg" viewBox="0 0 640 400" width="640" height="400" font-family="Segoe UI, Helvetica, Arial, sans-serif" font-size="13">
<rect width="640" height="400" fill="#fcfcfb"/>
<text x="320" y="24" text-anchor="middle" font-size="15" font-weight="600" fill="#0b0b0b">Геодезические Керра: энергия без векового дрейфа (Тао-4) (p = 4.02)</text>
<line x1="140.0" y1="50.0" x2="140.0" y2="330.0" stroke="#e5e4df"/><text x="140.0" y="348.0" text-anchor="middle" fill="#52514e">0.5</text>
<line x1="340.0" y1="50.0" x2="340.0" y2="330.0" stroke="#e5e4df"/><text x="340.0" y="348.0" text-anchor="middle" fill="#52514e">1</text>
<line x1="540.0" y1="50.0" x2="540.0" y2="330.0" stroke="#e5e4df"/><text x="540.0" y="348.0" text-anchor="middle" fill="#52514e">2</text>
<line x1="80.0" y1="328.7" x2="600.0" y2="328.7" stroke="#e5e4df"/><text x="72.0" y="332.7" text-anchor="end" fill="#52514e">5e-08</text>
<line x1="80.0" y1="305.6" x2="600.0" y2="305.6" stroke="#e5e4df"/><text x="72.0" y="309.6" text-anchor="end" fill="#52514e">1e-07</text>
<line x1="80.0" y1="282.5" x2="600.0" y2="282.5" stroke="#e5e4df"/><text x="72.0" y="286.5" text-anchor="end" fill="#52514e">2e-07</text>
<line x1="80.0" y1="251.9" x2="600.0" y2="251.9" stroke="#e5e4df"/><text x="72.0" y="255.9" text-anchor="end" fill="#52514e">5e-07</text>
<line x1="80.0" y1="228.8" x2="600.0" y2="228.8" stroke="#e5e4df"/><text x="72.0" y="232.8" text-anchor="end" fill="#52514e">1e-06</text>
<line x1="80.0" y1="205.7" x2="600.0" y2="205.7" stroke="#e5e4df"/><text x="72.0" y="209.7" text-anchor="end" fill="#52514e">2e-06</text>
<line x1="80.0" y1="175.2" x2="600.0" y2="175.2" stroke="#e5e4df"/><text x="72.0" y="179.2" text-anchor="end" fill="#52514e">5e-06</text>
<line x1="80.0" y1="152.1" x2="600.0" y2="152.1" stroke="#e5e4df"/><text x="72.0" y="156.1" text-anchor="end" fill="#52514e">1e-05</text>
<line x1="80.0" y1="129.0" x2="600.0" y2="129.0" stroke="#e5e4df"/><text x="72.0" y="133.0" text-anchor="end" fill="#52514e">2e-05</text>
<line x1="80.0" y1="98.4" x2="600.0" y2="98.4" stroke="#e5e4df"/><text x="72.0" y="102.4" text-anchor="end" fill="#52514e">5e-05</text>
<line x1="80.0" y1="75.3" x2="600.0" y2="75.3" stroke="#e5e4df"/><text x="72.0" y="79.3" text-anchor="end" fill="#52514e">0.0001</text>
<line x1="80.0" y1="52.2" x2="600.0" y2="52.2" stroke="#e5e4df"/><text x="72.0" y="56.2" text-anchor="end" fill="#52514e">0.0002</text>
<text x="340.0" y="370.0" text-anchor="middle" fill="#52514e">h, M (лог.)</text>
<text transform="translate(18 190.0) rotate(-90)" text-anchor="middle" fill="#52514e">ошибка (лог.)</text>
<line x1="140.0" y1="262.7" x2="540.0" y2="77.0" stroke="#2a78d6" stroke-width="2"/>
<circle cx="540.0" cy="77.1" r="5" fill="#2a78d6" stroke="#fcfcfb" stroke-width="2"><title>h = 2, ошибка 9.482e-05</title></circle>
<circle cx="340.0" cy="169.6" r="5" fill="#2a78d6" stroke="#fcfcfb" stroke-width="2"><title>h = 1, ошибка 5.916e-06</title></circle>
<circle cx="140.0" cy="262.8" r="5" fill="#2a78d6" stroke="#fcfcfb" stroke-width="2"><title>h = 0.5, ошибка 3.611e-07</title></circle>
<polygon points="140.0,297.8 340.0,297.8 340.0,205.4" fill="none" stroke="#52514e" stroke-dasharray="4 3"/>
<text x="346.0" y="255.6" fill="#52514e">теория p = 4</text>
</svg>
