<svg xmlns="http://www.w3.org/2000/svg" viewBox="0 0 640 400" width="640" height="400" font-family="Segoe UI, Helvetica, Arial, sans-serif" font-size="13">
<rect width="640" height="400" fill="#fcfcfb"/>
<text x="320" y="24" text-anchor="middle" font-size="15" font-weight="600" fill="#0b0b0b">Свободное вращение: порядок ошибки энергии по dt (p = 1.99)</text>
<line x1="192.6" y1="50.0" x2="192.6" y2="330.0" stroke="#e5e4df"/><text x="192.6" y="348.0" text-anchor="middle" fill="#52514e">0.005</text>
<line x1="392.6" y1="50.0" x2="392.6" y2="330.0" stroke="#e5e4df"/><text x="392.6" y="348.0" text-anchor="middle" fill="#52514e">0.01</text>
<line x1="592.6" y1="50.0" x2="592.6" y2="330.0" stroke="#e5e4df"/><text x="592.6" y="348.0" text-anchor="middle" fill="#52514e">0.02</text>
<line x1="80.0" y1="316.5" x2="600.0" y2="316.5" stroke="#e5e4df"/><text x="72.0" y="320.5" text-anchor="end" fill="#52514e">5e-06</text>
<line x1="80.0" y1="277.1" x2="600.0" y2="277.1" stroke="#e5e4df"/><text x="72.0" y="281.1" text-anchor="end" fill="#52514e">1e-05</text>
<line x1="80.0" y1="237.6" x2="600.0" y2="237.6" stroke="#e5e4df"/><text x="72.0" y="241.6" text-anchor="end" fill="#52514e">2e-05</text>
<line x1="80.0" y1="185.5" x2="600.0" y2="185.5" stroke="#e5e4df"/><text x="72.0" y="189.5" text-anchor="end" fill="#52514e">5e-05</text>
<line x1="80.0" y1="146.1" x2="600.0" y2="146.1" stroke="#e5e4df"/><text x="72.0" y="150.1" text-anchor="end" fill="#52514e">0.0001</text>
<line x1="80.0" y1="106.6" x2="600.0" y2="106.6" stroke="#e5e4df"/><text x="72.0" y="110.6" text-anchor="end" fill="#52514e">0.0002</text>
<line x1="80.0" y1="54.5" x2="600.0" y2="54.5" stroke="#e5e4df"/><text x="72.0" y="58.5" text-anchor="end" fill="#52514e">0.0005</text>
<text x="340.0" y="370.0" text-anchor="middle" fill="#52514e">dt, с (лог.)</text>
<text transform="translate(18 190.0) rotate(-90)" text-anchor="middle" fill="#52514e">ошибка (лог.)</text>
<line x1="140.0" y1="234.7" x2="540.0" y2="77.4" stroke="#2a78d6" stroke-width="2"/>
<circle cx="540.0" cy="77.1" r="5" fill="#2a78d6" stroke="#fcfcfb" stroke-width="2"><title>h = 0.01667, ошибка 0.0003361</title></circle>
<circle cx="340.0" cy="156.7" r="5" fill="#2a78d6" stroke="#fcfcfb" stroke-width="2"><title>h = 0.008333, ошибка 8.296e-05</title></circle>
<circle cx="140.0" cy="234.4" r="5" fill="#2a78d6" stroke="#fcfcfb" stroke-width="2"><title>h = 0.004167, ошибка 2.116e-05</title></circle>
<polygon points="140.0,294.1 340.0,294.1 340.0,215.3" fill="none" stroke="#52514e" stroke-dasharray="4 3"/>
<text x="346.0" y="258.7" fill="#52514e">теория p = 2</text>
</svg>
