<svg xmlns="http://www.w3.org/2000/svg" viewBox="0 0 680 440" width="680" height="440" font-family="Segoe UI, Helvetica, Arial, sans-serif" font-size="13">
<rect width="680" height="440" fill="#ffffff"/>
<text x="340" y="26" text-anchor="middle" font-size="15" font-weight="600" fill="#111827">Куб 1×1 м на кубе, повёрнутом на θ: 4 точки, которые держат опору</text>
<polygon points="85,295 275,295 275,105 85,105" fill="none" stroke="#9ca3af" stroke-width="1.5"/>
<polygon points="102.9,310.1 290.1,277.1 257.1,89.9 69.9,122.9" fill="none" stroke="#9ca3af" stroke-width="1.5" stroke-dasharray="5 4"/>
<polygon points="100.3,295 188.3,295 275,279.7 275,191.7 259.7,105 171.7,105 85,120.3 85,208.3" fill="#dbeafe" stroke="none"/>
<polygon points="100.3,295 85,120.3 259.7,105 275,279.7" fill="none" stroke="#2563eb" stroke-width="2.5" stroke-linejoin="round"/>
<line x1="100.3" y1="295" x2="259.7" y2="105" stroke="#2563eb" stroke-width="1.2" stroke-dasharray="4 3"/>
<circle cx="100.3" cy="295" r="4" fill="#ffffff" stroke="#374151" stroke-width="1.5"/>
<circle cx="188.3" cy="295" r="4" fill="#ffffff" stroke="#374151" stroke-width="1.5"/>
<circle cx="275" cy="279.7" r="4" fill="#ffffff" stroke="#374151" stroke-width="1.5"/>
<circle cx="275" cy="191.7" r="4" fill="#ffffff" stroke="#374151" stroke-width="1.5"/>
<circle cx="259.7" cy="105" r="4" fill="#ffffff" stroke="#374151" stroke-width="1.5"/>
<circle cx="171.7" cy="105" r="4" fill="#ffffff" stroke="#374151" stroke-width="1.5"/>
<circle cx="85" cy="120.3" r="4" fill="#ffffff" stroke="#374151" stroke-width="1.5"/>
<circle cx="85" cy="208.3" r="4" fill="#ffffff" stroke="#374151" stroke-width="1.5"/>
<circle cx="100.3" cy="295" r="6" fill="#2563eb" stroke="#ffffff" stroke-width="2"/>
<text x="90" y="311.3" text-anchor="middle" font-size="12" font-weight="600" fill="#111827">1</text>
<circle cx="259.7" cy="105" r="6" fill="#2563eb" stroke="#ffffff" stroke-width="2"/>
<text x="270" y="96.7" text-anchor="middle" font-size="12" font-weight="600" fill="#111827">2</text>
<circle cx="85" cy="120.3" r="6" fill="#2563eb" stroke="#ffffff" stroke-width="2"/>
<text x="72.7" y="114" text-anchor="middle" font-size="12" font-weight="600" fill="#111827">3</text>
<circle cx="275" cy="279.7" r="6" fill="#2563eb" stroke="#ffffff" stroke-width="2"/>
<text x="287.3" y="294" text-anchor="middle" font-size="12" font-weight="600" fill="#111827">4</text>
<text x="180" y="350" text-anchor="middle" font-size="14" font-weight="600" fill="#111827">θ = 10°</text>
<text x="180" y="370" text-anchor="middle" fill="#374151">общая область 0.927 м², 4 точки 0.852 м²</text>
<text x="180" y="388" text-anchor="middle" fill="#374151">лучшие 4 из 8 перебором: 0.852 м²</text>
<polygon points="405,295 595,295 595,105 405,105" fill="none" stroke="#9ca3af" stroke-width="1.5"/>
<polygon points="500,334.4 634.4,200 500,65.6 365.6,200" fill="none" stroke="#9ca3af" stroke-width="1.5" stroke-dasharray="5 4"/>
<polygon points="460.6,295 539.4,295 595,239.4 595,160.6 539.4,105 460.6,105 405,160.6 405,239.4" fill="#dbeafe" stroke="none"/>
<polygon points="460.6,295 405,160.6 539.4,105 595,239.4" fill="none" stroke="#2563eb" stroke-width="2.5" stroke-linejoin="round"/>
<line x1="460.6" y1="295" x2="539.4" y2="105" stroke="#2563eb" stroke-width="1.2" stroke-dasharray="4 3"/>
<circle cx="460.6" cy="295" r="4" fill="#ffffff" stroke="#374151" stroke-width="1.5"/>
<circle cx="539.4" cy="295" r="4" fill="#ffffff" stroke="#374151" stroke-width="1.5"/>
<circle cx="595" cy="239.4" r="4" fill="#ffffff" stroke="#374151" stroke-width="1.5"/>
<circle cx="595" cy="160.6" r="4" fill="#ffffff" stroke="#374151" stroke-width="1.5"/>
<circle cx="539.4" cy="105" r="4" fill="#ffffff" stroke="#374151" stroke-width="1.5"/>
<circle cx="460.6" cy="105" r="4" fill="#ffffff" stroke="#374151" stroke-width="1.5"/>
<circle cx="405" cy="160.6" r="4" fill="#ffffff" stroke="#374151" stroke-width="1.5"/>
<circle cx="405" cy="239.4" r="4" fill="#ffffff" stroke="#374151" stroke-width="1.5"/>
<circle cx="460.6" cy="295" r="6" fill="#2563eb" stroke="#ffffff" stroke-width="2"/>
<text x="454.5" y="313.8" text-anchor="middle" font-size="12" font-weight="600" fill="#111827">1</text>
<circle cx="539.4" cy="105" r="6" fill="#2563eb" stroke="#ffffff" stroke-width="2"/>
<text x="545.5" y="94.2" text-anchor="middle" font-size="12" font-weight="600" fill="#111827">2</text>
<circle cx="405" cy="160.6" r="6" fill="#2563eb" stroke="#ffffff" stroke-width="2"/>
<text x="390.2" y="158.5" text-anchor="middle" font-size="12" font-weight="600" fill="#111827">3</text>
<circle cx="595" cy="239.4" r="6" fill="#2563eb" stroke="#ffffff" stroke-width="2"/>
<text x="609.8" y="249.5" text-anchor="middle" font-size="12" font-weight="600" fill="#111827">4</text>
<text x="500" y="350" text-anchor="middle" font-size="14" font-weight="600" fill="#111827">θ = 45°</text>
<text x="500" y="370" text-anchor="middle" fill="#374151">общая область 0.828 м², 4 точки 0.586 м²</text>
<text x="500" y="388" text-anchor="middle" fill="#374151">лучшие 4 из 8 перебором: 0.586 м²</text>
<rect x="30" y="415" width="16" height="12" fill="#dbeafe"/><text x="52" y="426" fill="#111827">общая область граней</text>
<circle cx="212" cy="421" r="4" fill="#ffffff" stroke="#374151" stroke-width="1.5"/><text x="222" y="426" fill="#111827">точки после отсечения</text>
<line x1="388" y1="421" x2="412" y2="421" stroke="#2563eb" stroke-width="2.5"/><circle cx="400" cy="421" r="5" fill="#2563eb" stroke="#ffffff" stroke-width="2"/><text x="420" y="426" fill="#111827">выбор reduceManifold (номер = шаг)</text>
</svg>
