<svg xmlns="http://www.w3.org/2000/svg" viewBox="0 0 700 470" width="700" height="470" font-family="Segoe UI, Helvetica, Arial, sans-serif" font-size="13">
<rect width="700" height="470" fill="#ffffff"/>
<text x="350" y="26" text-anchor="middle" font-size="15" font-weight="600" fill="#111827">MAC-сетка (срез z = const): где живут величины</text>
<rect x="290" y="310" width="110" height="110" fill="#d1d5db"/>
<text x="345" y="369" text-anchor="middle" fill="#374151" font-size="12">твёрдая</text>
<line x1="70" y1="420" x2="70" y2="90" stroke="#6b7280"/><line x1="180" y1="420" x2="180" y2="90" stroke="#6b7280"/><line x1="290" y1="420" x2="290" y2="90" stroke="#6b7280"/><line x1="400" y1="420" x2="400" y2="90" stroke="#6b7280"/><line x1="70" y1="420" x2="400" y2="420" stroke="#6b7280"/><line x1="70" y1="310" x2="400" y2="310" stroke="#6b7280"/><line x1="70" y1="200" x2="400" y2="200" stroke="#6b7280"/><line x1="70" y1="90" x2="400" y2="90" stroke="#6b7280"/>
<circle cx="125" cy="365" r="5" fill="#111827"/><circle cx="125" cy="255" r="5" fill="#111827"/><circle cx="125" cy="145" r="5" fill="#111827"/><circle cx="235" cy="365" r="5" fill="#111827"/><circle cx="235" cy="255" r="5" fill="#111827"/><circle cx="235" cy="145" r="5" fill="#111827"/><circle cx="345" cy="255" r="5" fill="#111827"/><circle cx="345" cy="145" r="5" fill="#111827"/>
<line x1="54" y1="365" x2="80" y2="365" stroke="#2563eb" stroke-width="2.2"/><path d="M86 365 L77 369.3 L77 360.7 Z" fill="#2563eb"/>
<line x1="54" y1="255" x2="80" y2="255" stroke="#2563eb" stroke-width="2.2"/><path d="M86 255 L77 259.3 L77 250.7 Z" fill="#2563eb"/>
<line x1="54" y1="145" x2="80" y2="145" stroke="#2563eb" stroke-width="2.2"/><path d="M86 145 L77 149.3 L77 140.7 Z" fill="#2563eb"/>
<line x1="164" y1="365" x2="190" y2="365" stroke="#2563eb" stroke-width="2.2"/><path d="M196 365 L187 369.3 L187 360.7 Z" fill="#2563eb"/>
<line x1="164" y1="255" x2="190" y2="255" stroke="#2563eb" stroke-width="2.2"/><path d="M196 255 L187 259.3 L187 250.7 Z" fill="#2563eb"/>
<line x1="164" y1="145" x2="190" y2="145" stroke="#2563eb" stroke-width="2.2"/><path d="M196 145 L187 149.3 L187 140.7 Z" fill="#2563eb"/>
<line x1="274" y1="365" x2="300" y2="365" stroke="#2563eb" stroke-width="2.2"/><path d="M306 365 L297 369.3 L297 360.7 Z" fill="#2563eb"/>
<line x1="274" y1="255" x2="300" y2="255" stroke="#2563eb" stroke-width="2.2"/><path d="M306 255 L297 259.3 L297 250.7 Z" fill="#2563eb"/>
<line x1="274" y1="145" x2="300" y2="145" stroke="#2563eb" stroke-width="2.2"/><path d="M306 145 L297 149.3 L297 140.7 Z" fill="#2563eb"/>
<line x1="384" y1="365" x2="410" y2="365" stroke="#2563eb" stroke-width="2.2"/><path d="M416 365 L407 369.3 L407 360.7 Z" fill="#2563eb"/>
<line x1="384" y1="255" x2="410" y2="255" stroke="#2563eb" stroke-width="2.2"/><path d="M416 255 L407 259.3 L407 250.7 Z" fill="#2563eb"/>
<line x1="384" y1="145" x2="410" y2="145" stroke="#2563eb" stroke-width="2.2"/><path d="M416 145 L407 149.3 L407 140.7 Z" fill="#2563eb"/>
<line x1="125" y1="436" x2="125" y2="410" stroke="#ea580c" stroke-width="2.2"/><path d="M125 404 L129.3 413 L120.7 413 Z" fill="#ea580c"/>
<line x1="125" y1="326" x2="125" y2="300" stroke="#ea580c" stroke-width="2.2"/><path d="M125 294 L129.3 303 L120.7 303 Z" fill="#ea580c"/>
<line x1="125" y1="216" x2="125" y2="190" stroke="#ea580c" stroke-width="2.2"/><path d="M125 184 L129.3 193 L120.7 193 Z" fill="#ea580c"/>
<line x1="125" y1="106" x2="125" y2="80" stroke="#ea580c" stroke-width="2.2"/><path d="M125 74 L129.3 83 L120.7 83 Z" fill="#ea580c"/>
<line x1="235" y1="436" x2="235" y2="410" stroke="#ea580c" stroke-width="2.2"/><path d="M235 404 L239.3 413 L230.7 413 Z" fill="#ea580c"/>
<line x1="235" y1="326" x2="235" y2="300" stroke="#ea580c" stroke-width="2.2"/><path d="M235 294 L239.3 303 L230.7 303 Z" fill="#ea580c"/>
<line x1="235" y1="216" x2="235" y2="190" stroke="#ea580c" stroke-width="2.2"/><path d="M235 184 L239.3 193 L230.7 193 Z" fill="#ea580c"/>
<line x1="235" y1="106" x2="235" y2="80" stroke="#ea580c" stroke-width="2.2"/><path d="M235 74 L239.3 83 L230.7 83 Z" fill="#ea580c"/>
<line x1="345" y1="436" x2="345" y2="410" stroke="#ea580c" stroke-width="2.2"/><path d="M345 404 L349.3 413 L340.7 413 Z" fill="#ea580c"/>
<line x1="345" y1="326" x2="345" y2="300" stroke="#ea580c" stroke-width="2.2"/><path d="M345 294 L349.3 303 L340.7 303 Z" fill="#ea580c"/>
<line x1="345" y1="216" x2="345" y2="190" stroke="#ea580c" stroke-width="2.2"/><path d="M345 184 L349.3 193 L340.7 193 Z" fill="#ea580c"/>
<line x1="345" y1="106" x2="345" y2="80" stroke="#ea580c" stroke-width="2.2"/><path d="M345 74 L349.3 83 L340.7 83 Z" fill="#ea580c"/>
<text x="235" y="243" text-anchor="middle" fill="#111827">p(i, j)</text>
<text x="184" y="281" fill="#1d4ed8">u(i, j)</text>
<text x="294" y="281" fill="#1d4ed8">u(i+1, j)</text>
<text x="243" y="324" fill="#c2410c">v(i, j)</text>
<text x="243" y="214" fill="#c2410c">v(i, j+1)</text>
<text x="66" y="442" fill="#374151">i →</text><text x="42" y="102" fill="#374151">j ↑</text>
<rect x="430" y="60" width="256" height="112" fill="#ffffff" stroke="#d1d5db" rx="4"/><circle cx="448" cy="82" r="5" fill="#111827"/><text x="468" y="86" fill="#111827">центр: p, дым, T, топливо</text><line x1="436" y1="110" x2="454" y2="110" stroke="#2563eb" stroke-width="2.2"/><path d="M460 110 L451 114.3 L451 105.7 Z" fill="#2563eb"/>
<text x="468" y="114" fill="#111827">u на x-гранях</text><line x1="448" y1="150" x2="448" y2="132" stroke="#ea580c" stroke-width="2.2"/><path d="M448 126 L452.3 135 L443.7 135 Z" fill="#ea580c"/>
<text x="468" y="142" fill="#111827">v на y-гранях</text><text x="468" y="162" fill="#374151" font-size="12">(w — на z-гранях)</text>
<text x="430" y="200" fill="#111827" font-size="13">Field3::offset (в ячейках):</text><text x="430" y="220" fill="#374151" font-size="12">u (0, ½, ½)   v (½, 0, ½)   w (½, ½, 0)</text><text x="430" y="238" fill="#374151" font-size="12">p, дым, T, топливо (½, ½, ½)</text><text x="430" y="266" fill="#111827" font-size="13">Дивергенция ячейки:</text><text x="430" y="286" fill="#374151" font-size="12">[u(i+1) − u(i) + v(j+1) − v(j)</text><text x="430" y="304" fill="#374151" font-size="12">  + w(k+1) − w(k)] / Δx</text><text x="430" y="332" fill="#111827" font-size="13">Серая ячейка — тело: грани вокруг неё</text><text x="430" y="350" fill="#374151" font-size="12">несут скорость тела v + ω × r</text><text x="430" y="368" fill="#374151" font-size="12">(solidFaceVelocity, applyVelocityBC).</text>
</svg>
